#!OML:ASF E:\Steps\Project 1\Capture day 1\Session 2\Subject.ASF
:FULLY-SPECIFIED
:DEGREES
397
root 10.3656 9.72929 3.54641 -165.949 -0.669957 -183.942
lowerback 0.861595 -0.419266 -5.05807
upperback 0.958026 -0.636037 -1.03823
thorax 0.542786 -0.37011 1.76958
lowerneck -0.541201 0.397041 -2.08934
upperneck 8.54227 0.0139781 3.73174
head 2.81897 -0.0684638 1.56214
rclavicle 4.72114e-015 -7.7526e-015
rhumerus 5.21076 9.01692 -84.6882
rradius 45.3434
rwrist -3.338
rhand -10.7081 -57.2019
rfingers 7.12502
rthumb 15.3017 -86.6159
lclavicle 4.72114e-015 -7.7526e-015
lhumerus 12.7333 -26.7899 68.5127
lradius 39.6103
lwrist 3.01921
lhand -31.0516 -20.4122
lfingers 7.12502
lthumb -4.33301 9.52347
rfemur -79.3402 2.77901 21.3122
rtibia 56.2829
rfoot 129.811 12.5232
rtoes -39.7477
lfemur -79.655 -2.89141 -23.9489
ltibia 58.3061
lfoot -217.294 4.87085
ltoes -13.6023
398
root 10.3732 9.83482 3.5123 -165.576 -0.692231 -184.048
lowerback 0.842716 -0.409863 -5.06761
upperback 0.910852 -0.625123 -1.09142
thorax 0.503571 -0.363387 1.72039
lowerneck -0.588898 0.394556 -2.09332
upperneck 8.55054 0.011022 3.75232
head 2.83088 -0.0683218 1.57003
rclavicle -5.73991e-015 -1.799e-014
rhumerus 4.89964 8.8169 -84.9654
rradius 45.1459
rwrist -3.27354
rhand -10.5662 -57.5491
rfingers 7.12502
rthumb 15.4383 -86.9526
lclavicle -5.73991e-015 -1.799e-014
lhumerus 12.3967 -26.9091 68.6979
lradius 39.5963
lwrist 2.49698
lhand -30.3581 -20.1215
lfingers 7.12502
lthumb -3.66324 9.82681
rfemur -79.0319 2.61492 21.1358
rtibia 57.2687
rfoot 130.222 12.2745
rtoes -39.3344
lfemur -79.1589 -2.9978 -23.8582
ltibia 59.3931
lfoot -216.865 5.80742
ltoes -9.9402
399
root 10.3798 9.94666 3.47278 -165.154 -0.704398 -184.153
lowerback 0.532511 -0.4126 -5.11465
upperback 0.954076 -0.607511 -1.10905
thorax 0.72126 -0.360652 1.72528
lowerneck -0.60572 0.39904 -2.14795
upperneck 8.54632 0.0194925 3.77059
head 2.83268 -0.0643953 1.58607
rclavicle 5.96354e-015 9.93923e-017
rhumerus 4.3816 8.60833 -85.1634
rradius 45.2419
rwrist -3.24536
rhand -10.4916 -57.3173
rfingers 7.12502
rthumb 15.5102 -86.7152
lclavicle 5.96354e-015 9.93923e-017
lhumerus 12.1013 -26.9454 68.9545
lradius 39.4839
lwrist 2.03136
lhand -29.871 -20.022
lfingers 7.12502
lthumb -3.19288 9.93381
rfemur -78.699 2.50401 20.9093
rtibia 58.3234
rfoot 130.696 12.0385
rtoes -38.8074
lfemur -78.6574 -3.09274 -23.8091
ltibia 60.5692
lfoot -216.514 6.28207
ltoes -8.28806
400
root 10.3876 10.0666 3.43348 -164.757 -0.708986 -184.152
lowerback 0.276294 -0.395683 -5.09192
upperback 0.957586 -0.566851 -1.11436
thorax 0.865668 -0.342942 1.70493
lowerneck -0.569022 0.387136 -2.16882
upperneck 8.55306 0.00121728 3.78031
head 2.82895 -0.0747042 1.59229
rclavicle 8.4235e-015 2.99171e-014
rhumerus 3.69921 8.29544 -85.4248
rradius 45.2266
rwrist -3.25182
rhand -10.2328 -57.6576
rfingers 7.12502
rthumb 15.7594 -87.0361
lclavicle 8.4235e-015 2.99171e-014
lhumerus 11.6755 -27.2169 69.2809
lradius 39.1526
lwrist 1.24443
lhand -29.9319 -19.7204
lfingers 7.12502
lthumb -3.25173 10.2345
rfemur -78.285 2.44752 20.8056
rtibia 59.4698
rfoot 131.13 11.7359
rtoes -38.3318
lfemur -78.2067 -3.11446 -23.6686
ltibia 61.6341
lfoot -216.155 6.56206
ltoes -7.10504
401
root 10.397 10.1944 3.39834 -164.421 -0.755455 -184.043
lowerback 0.190372 -0.371754 -4.93516
upperback 0.961831 -0.52708 -1.09353
thorax 0.914243 -0.321899 1.63832
lowerneck -0.581532 0.365187 -2.18952
upperneck 8.56041 -0.0288269 3.79949
head 2.83505 -0.0893626 1.60172
rclavicle -6.68413e-015 -2.09718e-014
rhumerus 3.1324 7.93888 -85.695
rradius 44.9538
rwrist -3.25273
rhand -9.60028 -59.0383
rfingers 7.12502
rthumb 16.3685 -88.3676
lclavicle -6.68413e-015 -2.09718e-014
lhumerus 11.1816 -27.6689 69.553
lradius 38.8405
lwrist 0.636105
lhand -29.8096 -19.2061
lfingers 7.12502
lthumb -3.13359 10.7506
rfemur -77.726 2.38308 20.8825
rtibia 60.6702
rfoot 131.497 11.7022
rtoes -38.2314
lfemur -77.8076 -3.10791 -23.3936
ltibia 62.5879
lfoot -215.773 7.00665
ltoes -4.78951
402
root 10.4076 10.3272 3.3646 -164.046 -0.819286 -183.917
lowerback -0.0087273 -0.346523 -4.80315
upperback 0.991615 -0.476757 -1.02963
thorax 1.05282 -0.297568 1.62891
lowerneck -0.509858 0.365919 -2.24479
upperneck 8.53914 -0.0290002 3.82305
head 2.81504 -0.091458 1.61849
rclavicle 4.87022e-015 7.65321e-015
rhumerus 2.65721 7.62448 -85.8841
rradius 44.5183
rwrist -3.24533
rhand -9.56847 -59.3484
rfingers 7.12502
rthumb 16.3992 -88.6751
lclavicle 4.87022e-015 7.65321e-015
lhumerus 10.6369 -28.147 69.8511
lradius 38.5962
lwrist 0.462064
lhand -29.4175 -18.8945
lfingers 7.12502
lthumb -2.75493 11.0675
rfemur -77.1648 2.36932 20.952
rtibia 61.8764
rfoot 131.805 11.8509
rtoes -38.5298
lfemur -77.4227 -3.08891 -23.1115
ltibia 63.6541
lfoot -215.419 7.15057
ltoes -3.90588
403
root 10.4193 10.4632 3.32914 -163.621 -0.821397 -183.924
lowerback -0.308244 -0.331832 -4.84601
upperback 1.03686 -0.435878 -1.00776
thorax 1.26558 -0.28243 1.67339
lowerneck -0.493239 0.376078 -2.3194
upperneck 8.54044 -0.0142543 3.84028
head 2.8124 -0.0859363 1.6377
rclavicle -1.16786e-015 -1.59028e-014
rhumerus 2.13873 7.40448 -86.0773
rradius 43.9892
rwrist -3.26426
rhand -10.2024 -58.3751
rfingers 7.12502
rthumb 15.7888 -87.7512
lclavicle -1.16786e-015 -1.59028e-014
lhumerus 10.0753 -28.5542 70.1668
lradius 38.2407
lwrist 0.339512
lhand -29.0743 -18.8729
lfingers 7.12502
lthumb -2.42351 11.0931
rfemur -76.6816 2.3633 20.8507
rtibia 63.1583
rfoot 132.091 11.9585
rtoes -38.9094
lfemur -77.0658 -3.03822 -23.0029
ltibia 64.807
lfoot -215.035 7.04657
ltoes -3.79793
404
root 10.4304 10.6029 3.29013 -163.231 -0.894677 -183.983
lowerback -0.644246 -0.349219 -4.91789
upperback 1.0944 -0.435252 -1.00113
thorax 1.51429 -0.289158 1.71765
lowerneck -0.438433 0.36889 -2.32194
upperneck 8.53708 -0.0278806 3.85722
head 2.80173 -0.093535 1.6429
rclavicle -8.94531e-016 2.12203e-014
rhumerus 1.4693 7.15224 -86.2722
rradius 43.5586
rwrist -3.22569
rhand -10.2999 -57.547
rfingers 7.12502
rthumb 15.6948 -86.9305
lclavicle -8.94531e-016 2.12203e-014
lhumerus 9.31588 -28.9846 70.5545
lradius 37.8711
lwrist 0.12133
lhand -28.8453 -18.8645
lfingers 7.12502
lthumb -2.2023 11.1039
rfemur -76.0711 2.21959 20.7235
rtibia 64.6655
rfoot 132.499 11.8775
rtoes -38.983
lfemur -76.5335 -3.09698 -22.9612
ltibia 66.194
lfoot -214.768 5.89259
ltoes -8.47719
405
root 10.4455 10.7532 3.26199 -162.734 -1.15279 -183.792
lowerback -0.916903 -0.407828 -4.7963
upperback 1.03465 -0.49437 -0.869107
thorax 1.61013 -0.3158 1.78243
lowerneck -0.250121 0.360485 -2.27148
upperneck 8.51813 -0.0500956 3.85904
head 2.76104 -0.10752 1.63222
rclavicle -7.36746e-015 -2.2413e-014
rhumerus 0.673685 6.84877 -86.4715
rradius 43.1002
rwrist -3.091
rhand -10.3332 -58.914
rfingers 7.12502
rthumb 15.6628 -88.3
lclavicle -7.36746e-015 -2.2413e-014
lhumerus 8.34579 -29.4526 71.1201
lradius 37.4202
lwrist -0.0637697
lhand -28.8517 -18.7661
lfingers 7.12502
lthumb -2.20851 11.2022
rfemur -75.4607 2.09616 20.9138
rtibia 66.3391
rfoot 132.985 11.7231
rtoes -38.7953
lfemur -75.9691 -3.18933 -22.5946
ltibia 67.8119
lfoot -214.514 4.08776
ltoes -16.5216
406
root 10.4662 10.9135 3.25029 -162.006 -1.47649 -183.451
lowerback -1.12686 -0.514301 -4.57284
upperback 0.840695 -0.625688 -0.671863
thorax 1.53701 -0.370666 1.85642
lowerneck -0.1177 0.378872 -2.28618
upperneck 8.5074 -0.0307478 3.85368
head 2.73233 -0.101611 1.63232
rclavicle -3.77691e-015 1.12562e-014
rhumerus -0.197574 6.63368 -86.7364
rradius 42.4848
rwrist -2.78893
rhand -10.432 -58.7899
rfingers 7.12502
rthumb 15.5676 -88.1834
lclavicle -3.77691e-015 1.12562e-014
lhumerus 7.47198 -29.8049 71.6573
lradius 36.804
lwrist -0.0728751
lhand -28.5632 -18.7461
lfingers 7.12502
lthumb -1.92984 11.225
rfemur -75.172 2.08871 21.3015
rtibia 67.86
rfoot 133.43 11.7788
rtoes -38.728
lfemur -75.8107 -3.22274 -21.9735
ltibia 69.226
lfoot -214.111 3.21878
ltoes -20.5875
407
root 10.4807 11.071 3.22949 -161.343 -1.71011 -183.353
lowerback -1.32677 -0.586233 -4.42378
upperback 0.843473 -0.711182 -0.626611
thorax 1.65647 -0.413301 1.81513
lowerneck -0.633054 0.322428 -2.25976
upperneck 8.54166 -0.0846733 3.88137
head 2.84127 -0.114201 1.64007
rclavicle -2.29845e-015 -2.15184e-014
rhumerus -0.676095 6.336 -86.9588
rradius 41.6563
rwrist -2.43288
rhand -10.4583 -58.6798
rfingers 7.12502
rthumb 15.5423 -88.0752
lclavicle -2.29845e-015 -2.15184e-014
lhumerus 7.03986 -30.2249 71.8709
lradius 36.1872
lwrist -0.0203353
lhand -28.0777 -18.5717
lfingers 7.12502
lthumb -1.46092 11.4031
rfemur -74.9329 2.00341 21.3598
rtibia 69.2012
rfoot 133.802 11.6718
rtoes -38.4816
lfemur -75.6248 -3.34814 -21.6174
ltibia 70.5447
lfoot -213.564 3.17084
ltoes -20.7154
408
root 10.4885 11.2276 3.19176 -160.942 -1.71528 -183.418
lowerback -1.58059 -0.625283 -4.45608
upperback 0.6317 -0.752983 -0.60891
thorax 1.58461 -0.429012 1.84897
lowerneck -0.0957878 0.365121 -2.42422
upperneck 8.50061 -0.0517382 3.93164
head 2.7281 -0.114367 1.68182
rclavicle 7.71533e-015 1.28962e-014
rhumerus -1.80141 6.11528 -87.1831
rradius 40.7771
rwrist -2.09457
rhand -10.143 -58.9991
rfingers 7.12502
rthumb 15.846 -88.3707
lclavicle 7.71533e-015 1.28962e-014
lhumerus 5.47172 -30.8089 72.6775
lradius 35.6722
lwrist -0.218905
lhand -28.0487 -18.0981
lfingers 7.12502
lthumb -1.43299 11.8768
rfemur -74.429 1.97872 21.1626
rtibia 70.5633
rfoot 134.173 11.6496
rtoes -38.6807
lfemur -74.9754 -3.39814 -21.5176
ltibia 72.0706
lfoot -212.959 3.44399
ltoes -18.9351
